<?xml version="1.0" standalone="no"?>
<!DOCTYPE svg PUBLIC "-//W3C//DTD SVG 20010904//EN"
 "http://www.w3.org/TR/2001/REC-SVG-20010904/DTD/svg10.dtd">
<svg version="1.0" xmlns="http://www.w3.org/2000/svg"
 width="340.000000pt" height="340.000000pt" viewBox="0 0 340.000000 340.000000"
 preserveAspectRatio="xMidYMid meet">
<metadata>
Created by potrace 1.14, written by Peter Selinger 2001-2017
</metadata>
<g transform="translate(0.000000,340.000000) scale(0.100000,-0.100000)"
fill="#000000" stroke="none">
<path d="M1530 3313 c-128 -16 -262 -56 -395 -116 -49 -23 -92 -44 -95 -47 -3
-3 -34 -27 -70 -53 -133 -98 -224 -205 -298 -352 -48 -95 -66 -175 -66 -305
-2 -224 58 -352 347 -740 55 -74 139 -189 185 -255 47 -66 99 -140 117 -165
34 -49 187 -268 236 -338 l29 -43 78 41 c117 61 172 131 172 221 0 43 -46 124
-164 288 -64 90 -121 172 -128 184 -6 12 -18 28 -25 36 -8 8 -25 30 -38 50
-12 20 -30 42 -39 50 -9 7 -16 17 -16 22 0 5 -7 17 -16 27 -48 52 -209 284
-249 356 -58 107 -88 220 -80 298 13 127 68 230 175 330 77 73 162 120 275
153 351 103 730 -35 868 -317 48 -97 49 -102 52 -181 5 -107 -28 -218 -87
-298 -23 -30 -26 -23 55 -134 84 -117 141 -188 152 -191 16 -4 141 142 186
216 179 302 128 669 -132 937 -72 74 -222 177 -324 223 -65 29 -227 81 -243
78 -4 -1 -14 2 -22 5 -47 20 -336 33 -440 20z"/>
<path d="M1798 2486 c-61 -31 -128 -84 -128 -101 0 -7 -6 -18 -14 -24 -16 -13
-31 -82 -27 -121 5 -45 27 -83 134 -235 59 -82 110 -154 115 -160 10 -13 312
-437 388 -545 49 -71 88 -137 85 -147 0 -2 6 -21 14 -43 8 -22 12 -40 8 -40
-3 0 -2 -6 3 -12 5 -7 9 -38 8 -68 -3 -185 -113 -356 -289 -455 -69 -38 -192
-82 -250 -89 -22 -2 -40 -5 -40 -6 0 -1 -38 -3 -85 -4 -135 -3 -319 37 -392
86 -14 10 -29 18 -32 18 -15 0 -116 82 -151 122 -88 102 -129 208 -127 327 2
95 21 159 72 244 l41 68 -23 32 c-66 94 -198 268 -203 268 -13 1 -111 -101
-150 -155 -41 -58 -86 -133 -90 -151 -1 -5 -8 -23 -14 -40 -7 -16 -14 -34 -15
-40 -1 -5 -4 -14 -8 -20 -14 -23 -29 -134 -30 -220 -2 -184 85 -385 233 -536
108 -110 200 -172 379 -253 53 -24 120 -46 120 -39 0 3 6 1 13 -5 7 -6 31 -13
54 -15 23 -3 46 -8 51 -11 23 -14 365 -32 384 -20 6 4 29 8 52 11 54 5 91 11
91 13 0 1 10 3 23 6 12 2 62 17 111 33 309 102 548 315 646 576 28 74 34 100
40 175 2 30 5 57 6 60 1 3 1 8 1 11 -1 4 -4 42 -7 85 -9 121 -74 279 -166 401
-21 29 -39 56 -39 62 0 5 -4 11 -8 13 -9 3 -86 111 -225 313 -53 77 -102 146
-108 154 -16 18 -205 278 -293 404 -77 109 -83 111 -158 73z"/>
</g>
</svg>
