<?xml version="1.0" standalone="no"?>
<!DOCTYPE svg PUBLIC "-//W3C//DTD SVG 20010904//EN"
 "http://www.w3.org/TR/2001/REC-SVG-20010904/DTD/svg10.dtd">
<svg version="1.0" xmlns="http://www.w3.org/2000/svg"
 width="300.000000pt" height="300.000000pt" viewBox="0 0 300.000000 300.000000"
 preserveAspectRatio="xMidYMid meet">
<metadata>
Created by potrace 1.14, written by Peter Selinger 2001-2017
</metadata>
<g transform="translate(0.000000,300.000000) scale(0.100000,-0.100000)"
fill="#000000" stroke="none">
<path d="M750 2744 c-45 -20 -68 -41 -91 -86 -18 -36 -19 -78 -19 -1178 0
-1100 1 -1142 19 -1178 23 -46 46 -67 94 -87 31 -13 118 -15 626 -15 392 0
599 4 618 11 40 15 82 57 104 104 17 36 19 71 19 386 l0 345 51 19 c29 10 85
40 125 67 123 83 212 197 267 342 26 69 31 99 34 201 4 89 1 138 -11 190 -21
86 -73 197 -118 249 -30 35 -36 38 -56 27 -31 -16 -28 -32 18 -108 53 -89 77
-156 89 -250 44 -348 -209 -657 -562 -689 -78 -7 -163 5 -267 37 -51 16 -89
20 -175 18 -60 -1 -116 -1 -122 0 -10 1 -13 33 -13 126 0 114 -2 130 -25 175
-63 125 -72 316 -22 460 90 256 346 425 617 407 119 -8 226 -46 333 -120 22
-15 51 1 55 31 4 26 -39 59 -141 107 l-77 37 0 117 c0 91 -4 124 -19 156 -22
47 -64 89 -104 104 -19 7 -225 11 -620 11 -505 -1 -597 -3 -627 -16z m1256
-98 l34 -34 0 -111 c0 -120 2 -117 -57 -105 -30 6 -31 7 -35 82 -5 69 -8 78
-37 104 -29 26 -37 28 -120 28 -102 0 -122 -10 -165 -85 l-27 -45 -220 0 -219
0 -35 55 c-19 30 -44 59 -54 65 -30 15 -177 13 -210 -4 -15 -8 -32 -26 -39
-41 -9 -19 -12 -191 -12 -665 0 -622 1 -640 19 -650 25 -13 27 -13 45 6 14 14
16 86 16 650 l0 634 75 0 75 0 19 -37 c10 -21 31 -49 46 -63 26 -25 28 -25
245 -28 272 -4 288 -1 336 74 l35 55 72 -3 72 -3 3 -62 3 -62 -48 -7 c-345
-49 -602 -342 -603 -687 0 -91 22 -200 58 -277 22 -50 24 -66 23 -177 l-3
-123 30 -30 30 -30 137 0 c110 0 147 -4 197 -21 33 -11 86 -23 117 -27 l56 -7
0 -290 0 -290 -487 -3 -488 -2 0 339 c0 295 -2 342 -16 355 -18 19 -20 19 -45
6 -18 -10 -19 -25 -19 -356 0 -374 2 -388 55 -412 19 -9 158 -12 520 -12 l495
0 32 29 33 29 5 304 5 303 43 3 42 3 0 -336 0 -337 -34 -34 -34 -34 -589 0
c-565 0 -589 1 -620 20 -21 13 -35 31 -42 57 -14 51 -15 2193 -1 2243 5 19 22
45 37 57 l28 23 593 0 594 0 34 -34z"/>
<path d="M1232 2598 c-7 -7 -12 -19 -12 -28 0 -35 21 -40 156 -40 107 0 136 3
148 16 19 18 19 20 6 45 -10 17 -22 19 -148 19 -94 0 -142 -4 -150 -12z"/>
<path d="M1002 938 c-15 -15 -15 -41 0 -56 17 -17 729 -17 746 0 17 17 15 55
-4 62 -9 3 -176 6 -373 6 -264 0 -360 -3 -369 -12z"/>
<path d="M999 774 c-9 -11 -10 -20 -2 -32 9 -15 46 -17 384 -17 l374 0 0 30 0
30 -371 3 c-330 2 -373 0 -385 -14z"/>
<path d="M1002 628 c-16 -16 -15 -43 2 -57 9 -8 117 -11 376 -9 333 3 364 4
374 21 8 12 8 22 0 35 -10 16 -41 17 -375 20 -275 2 -368 -1 -377 -10z"/>
<path d="M1776 2225 c-182 -50 -328 -196 -381 -379 -27 -91 -17 -249 20 -340
25 -63 27 -77 22 -157 -5 -78 -3 -91 14 -114 20 -24 24 -25 142 -25 90 0 134
-5 167 -17 71 -27 237 -24 322 5 86 30 197 108 247 175 170 224 154 513 -38
706 -72 73 -155 122 -246 146 -71 18 -202 18 -269 0z m273 -84 c166 -52 286
-194 314 -370 36 -234 -126 -463 -361 -512 -68 -14 -179 -7 -241 15 -29 11
-78 16 -146 16 l-103 0 6 85 c4 76 2 91 -21 142 -113 253 12 533 278 625 69
24 196 23 274 -1z"/>
<path d="M1684 2011 c-67 -41 -97 -112 -93 -218 5 -105 40 -175 133 -268 158
-157 324 -184 449 -75 88 78 85 161 -7 215 -26 15 -64 29 -85 32 -35 5 -43 1
-84 -36 -39 -36 -48 -40 -69 -32 -30 11 -86 77 -95 110 -4 17 1 29 20 45 28
24 47 56 47 82 0 35 -44 107 -83 135 -47 34 -89 37 -133 10z"/>
</g>
</svg>
